<svg xmlns="http://www.w3.org/2000/svg" width="27" height="33" viewBox="0 0 27 33">
  <g id="Group_146" data-name="Group 146" transform="translate(-622.5 -2841.5)">
    <path id="Path_51" data-name="Path 51" d="M27,34.5H9A4.505,4.505,0,0,1,4.5,30V9A4.505,4.505,0,0,1,9,4.5h3a1.5,1.5,0,0,1,0,3H9A1.5,1.5,0,0,0,7.5,9V30A1.5,1.5,0,0,0,9,31.5H27A1.5,1.5,0,0,0,28.5,30V9A1.5,1.5,0,0,0,27,7.5H24a1.5,1.5,0,0,1,0-3h3A4.505,4.505,0,0,1,31.5,9V30A4.505,4.505,0,0,1,27,34.5Z" transform="translate(618 2840)" fill="#ff5d5e"/>
    <path id="Path_52" data-name="Path 52" d="M13.5,1.5h9a3,3,0,0,1,3,3v3a3,3,0,0,1-3,3h-9a3,3,0,0,1-3-3v-3A3,3,0,0,1,13.5,1.5Zm9,6v-3h-9l0,3Z" transform="translate(618 2840)" fill="#ff5d5e"/>
  </g>
</svg>
