<?xml version="1.0" encoding="UTF-8"?>
<svg id="Layer_1" data-name="Layer 1" xmlns="http://www.w3.org/2000/svg" viewBox="0 0 34.99 26.09">
  <defs>
    <style>
      .cls-1 {
        fill: #f5fffb;
      }
    </style>
  </defs>
  <path id="Icon_awesome-check" data-name="Icon awesome-check" class="cls-1" d="M11.88,25.58L.51,14.21c-.68-.68-.68-1.79,0-2.47,0,0,0,0,0,0l2.47-2.47c.68-.68,1.79-.68,2.47,0h0s7.66,7.66,7.66,7.66L29.53.51c.68-.68,1.79-.68,2.47,0,0,0,0,0,0,0l2.47,2.47c.68.68.68,1.79,0,2.47,0,0,0,0,0,0L14.36,25.58c-.68.68-1.79.68-2.47,0,0,0,0,0,0,0Z"/>
</svg>