<svg xmlns="http://www.w3.org/2000/svg" width="1527.885" height="586.976" viewBox="0 0 1527.885 586.976">
  <g id="hero-background-3--dark" transform="translate(-335.504 -229.473)">
    <path id="Icon_awesome-clipboard-check" data-name="Icon awesome-clipboard-check" d="M49.358,9.4H37.606a9.4,9.4,0,1,0-18.8,0H7.051A7.053,7.053,0,0,0,0,16.453V68.162a7.053,7.053,0,0,0,7.051,7.051H49.358a7.053,7.053,0,0,0,7.051-7.051V16.453A7.053,7.053,0,0,0,49.358,9.4ZM28.2,5.876A3.526,3.526,0,1,1,24.679,9.4,3.517,3.517,0,0,1,28.2,5.876Zm17.8,34.051L25,60.758a1.764,1.764,0,0,1-2.5-.015L10.371,48.506a1.764,1.764,0,0,1,.015-2.5l4.172-4.143a1.764,1.764,0,0,1,2.5.015L23.813,48.7,39.384,33.244a1.764,1.764,0,0,1,2.5.015l4.143,4.172A1.764,1.764,0,0,1,46.009,39.927Z" transform="translate(544.987 254.759) rotate(-11)" opacity="0.07"/>
    <path id="Icon_awesome-clipboard-check-2" data-name="Icon awesome-clipboard-check" d="M35.516,6.765H27.06a6.765,6.765,0,1,0-13.53,0H5.074A5.075,5.075,0,0,0,0,11.839V49.046A5.075,5.075,0,0,0,5.074,54.12H35.516a5.075,5.075,0,0,0,5.074-5.074V11.839A5.075,5.075,0,0,0,35.516,6.765ZM20.3,4.228a2.537,2.537,0,1,1-2.537,2.537A2.531,2.531,0,0,1,20.3,4.228Zm12.811,24.5L17.991,43.719a1.27,1.27,0,0,1-1.8-.011L7.463,34.9a1.27,1.27,0,0,1,.011-1.8l3-2.981a1.27,1.27,0,0,1,1.8.011l4.862,4.9,11.2-11.12a1.27,1.27,0,0,1,1.8.011l2.981,3A1.27,1.27,0,0,1,33.106,28.73Z" transform="translate(889.493 232.305) rotate(-4)" opacity="0.07"/>
    <path id="Icon_awesome-clipboard-check-3" data-name="Icon awesome-clipboard-check" d="M38.591,7.351H29.4a7.351,7.351,0,1,0-14.7,0H5.513A5.514,5.514,0,0,0,0,12.864V53.292a5.514,5.514,0,0,0,5.513,5.513H38.591A5.514,5.514,0,0,0,44.1,53.292V12.864A5.514,5.514,0,0,0,38.591,7.351ZM22.052,4.594A2.757,2.757,0,1,1,19.3,7.351,2.75,2.75,0,0,1,22.052,4.594Zm13.92,26.623L19.548,47.5a1.38,1.38,0,0,1-1.953-.011L8.109,37.925a1.38,1.38,0,0,1,.011-1.953l3.262-3.239a1.38,1.38,0,0,1,1.953.011l5.283,5.329L30.792,25.992A1.38,1.38,0,0,1,32.745,26l3.239,3.262A1.379,1.379,0,0,1,35.972,31.217Z" transform="translate(1526.957 257.883) rotate(16)" opacity="0.07"/>
    <path id="Icon_awesome-clipboard-check-4" data-name="Icon awesome-clipboard-check" d="M41.878,7.977H31.907a7.977,7.977,0,1,0-15.954,0H5.983A5.984,5.984,0,0,0,0,13.959V57.832a5.984,5.984,0,0,0,5.983,5.983h35.9a5.984,5.984,0,0,0,5.983-5.983V13.959A5.984,5.984,0,0,0,41.878,7.977ZM23.93,4.985a2.991,2.991,0,1,1-2.991,2.991A2.984,2.984,0,0,1,23.93,4.985ZM39.036,33.876,21.213,51.55a1.5,1.5,0,0,1-2.119-.012L8.8,41.155a1.5,1.5,0,0,1,.012-2.119l3.54-3.515a1.5,1.5,0,0,1,2.119.012L20.2,41.317,33.415,28.205a1.5,1.5,0,0,1,2.119.012l3.515,3.54A1.5,1.5,0,0,1,39.036,33.876Z" transform="matrix(0.921, 0.391, -0.391, 0.921, 1799.674, 539.559)" opacity="0.07"/>
    <path id="Icon_awesome-clipboard-check-5" data-name="Icon awesome-clipboard-check" d="M31.692,6.037H24.147a6.037,6.037,0,1,0-12.073,0H4.527A4.529,4.529,0,0,0,0,10.564v33.2a4.529,4.529,0,0,0,4.527,4.527H31.692a4.529,4.529,0,0,0,4.527-4.527v-33.2A4.529,4.529,0,0,0,31.692,6.037ZM18.11,3.773a2.264,2.264,0,1,1-2.264,2.264A2.258,2.258,0,0,1,18.11,3.773ZM29.542,25.637,16.054,39.012A1.133,1.133,0,0,1,14.45,39L6.659,31.145a1.133,1.133,0,0,1,.009-1.6l2.679-2.66a1.133,1.133,0,0,1,1.6.009l4.339,4.377,10-9.923a1.133,1.133,0,0,1,1.6.009l2.66,2.679A1.133,1.133,0,0,1,29.542,25.637Z" transform="matrix(0.974, 0.225, -0.225, 0.974, 1475.457, 728.181)" opacity="0.07"/>
    <path id="Icon_awesome-clipboard-check-6" data-name="Icon awesome-clipboard-check" d="M44.755,8.525H34.1a8.525,8.525,0,1,0-17.05,0H6.394A6.4,6.4,0,0,0,0,14.918V61.8A6.4,6.4,0,0,0,6.394,68.2H44.755A6.4,6.4,0,0,0,51.149,61.8V14.918A6.4,6.4,0,0,0,44.755,8.525Zm-19.181-3.2a3.2,3.2,0,1,1-3.2,3.2A3.189,3.189,0,0,1,25.574,5.328ZM41.718,36.2,22.671,55.091a1.6,1.6,0,0,1-2.264-.013l-11-11.1a1.6,1.6,0,0,1,.013-2.264L13.2,37.962a1.6,1.6,0,0,1,2.264.013l6.127,6.18L35.711,30.143a1.6,1.6,0,0,1,2.264.013l3.756,3.783A1.6,1.6,0,0,1,41.718,36.2Z" transform="translate(1038.336 725.292) rotate(3)" opacity="0.07"/>
    <path id="Icon_awesome-clipboard-check-7" data-name="Icon awesome-clipboard-check" d="M35.528,6.767H27.069a6.767,6.767,0,1,0-13.534,0H5.075A5.077,5.077,0,0,0,0,11.843v37.22a5.077,5.077,0,0,0,5.075,5.075H35.528A5.077,5.077,0,0,0,40.6,49.062V11.843A5.077,5.077,0,0,0,35.528,6.767ZM20.3,4.229a2.538,2.538,0,1,1-2.538,2.538A2.532,2.532,0,0,1,20.3,4.229Zm12.815,24.51L18,43.733a1.27,1.27,0,0,1-1.8-.011L7.465,34.915a1.27,1.27,0,0,1,.011-1.8l3-2.982a1.27,1.27,0,0,1,1.8.011l4.864,4.906L28.348,23.928a1.27,1.27,0,0,1,1.8.011l2.982,3A1.27,1.27,0,0,1,33.117,28.739Z" transform="translate(684.348 760.668) rotate(-11)" opacity="0.07"/>
    <path id="Icon_awesome-clipboard-check-8" data-name="Icon awesome-clipboard-check" d="M35.516,6.765H27.06a6.765,6.765,0,1,0-13.53,0H5.074A5.075,5.075,0,0,0,0,11.839V49.046A5.075,5.075,0,0,0,5.074,54.12H35.516a5.075,5.075,0,0,0,5.074-5.074V11.839A5.075,5.075,0,0,0,35.516,6.765ZM20.3,4.228a2.537,2.537,0,1,1-2.537,2.537A2.531,2.531,0,0,1,20.3,4.228Zm12.811,24.5L17.991,43.719a1.27,1.27,0,0,1-1.8-.011L7.463,34.9a1.27,1.27,0,0,1,.011-1.8l3-2.981a1.27,1.27,0,0,1,1.8.011l4.862,4.9,11.2-11.12a1.27,1.27,0,0,1,1.8.011l2.981,3A1.27,1.27,0,0,1,33.106,28.73Z" transform="translate(357.627 566.82) rotate(-22)" opacity="0.07"/>
    <path id="Icon_metro-lab" data-name="Icon metro-lab" d="M50.056,42.49,34.109,15.917V5.155h1.613a1.613,1.613,0,0,0,0-3.227H19.588a1.613,1.613,0,0,0,0,3.227H21.2V15.917L5.254,42.49C1.6,48.577,4.422,53.558,11.521,53.558H43.789C50.889,53.558,53.709,48.577,50.056,42.49ZM13.993,34.2,24.428,16.805V5.155h6.454v11.65L41.317,34.2Z" transform="translate(735.647 271.32) rotate(-8)" opacity="0.07"/>
    <path id="Icon_metro-lab-2" data-name="Icon metro-lab" d="M59.982,51.167,40.624,18.91V5.845h1.959a1.959,1.959,0,0,0,0-3.917H23a1.959,1.959,0,0,0,0,3.917h1.959V18.91L5.6,51.167C1.162,58.557,4.586,64.6,13.2,64.6H52.375C60.993,64.6,64.416,58.557,59.982,51.167ZM16.2,41.1,28.872,19.988V5.845h7.834V19.988L49.374,41.1Z" transform="matrix(0.995, 0.105, -0.105, 0.995, 1334.291, 229.53)" opacity="0.07"/>
    <path id="Icon_metro-lab-3" data-name="Icon metro-lab" d="M44.058,37.246,30.172,14.109V4.738h1.4a1.4,1.4,0,1,0,0-2.81H17.528a1.4,1.4,0,0,0,0,2.81h1.4v9.371L5.047,37.246c-3.18,5.3-.725,9.637,5.456,9.637H38.6C44.783,46.884,47.238,42.547,44.058,37.246Zm-31.4-7.221,9.086-15.143V4.738h5.619V14.882l9.086,15.143Z" transform="translate(1821.043 426.722) rotate(19)" opacity="0.07"/>
    <path id="Icon_metro-lab-4" data-name="Icon metro-lab" d="M44.058,37.246,30.172,14.109V4.738h1.4a1.4,1.4,0,1,0,0-2.81H17.528a1.4,1.4,0,0,0,0,2.81h1.4v9.371L5.047,37.246c-3.18,5.3-.725,9.637,5.456,9.637H38.6C44.783,46.884,47.238,42.547,44.058,37.246Zm-31.4-7.221,9.086-15.143V4.738h5.619V14.882l9.086,15.143Z" transform="translate(798.861 723.618) rotate(-4)" opacity="0.07"/>
    <path id="Icon_metro-lab-5" data-name="Icon metro-lab" d="M54.134,46.054,36.785,17.147V5.438H38.54a1.755,1.755,0,1,0,0-3.51H20.988a1.755,1.755,0,0,0,0,3.51h1.755V17.147L5.395,46.054c-3.973,6.622-.906,12.041,6.817,12.041h35.1C55.039,58.095,58.107,52.677,54.134,46.054ZM14.9,37.032l11.352-18.92V5.438h7.021V18.112l11.352,18.92Z" transform="translate(1177.108 751.838) rotate(3)" opacity="0.07"/>
    <path id="Icon_metro-lab-6" data-name="Icon metro-lab" d="M54.134,46.054,36.785,17.147V5.438H38.54a1.755,1.755,0,1,0,0-3.51H20.988a1.755,1.755,0,0,0,0,3.51h1.755V17.147L5.395,46.054c-3.973,6.622-.906,12.041,6.817,12.041h35.1C55.039,58.095,58.107,52.677,54.134,46.054ZM14.9,37.032l11.352-18.92V5.438h7.021V18.112l11.352,18.92Z" transform="matrix(0.966, -0.259, 0.259, 0.966, 406.53, 667.202)" opacity="0.07"/>
    <path id="Icon_awesome-question-circle" data-name="Icon awesome-question-circle" d="M48.438,24.192A23.784,23.784,0,0,1,24.5,47.822,23.784,23.784,0,0,1,.563,24.192,23.789,23.789,0,0,1,24.5.563,23.789,23.789,0,0,1,48.438,24.192ZM25.142,8.376c-5.26,0-8.615,2.187-11.25,6.075A1.135,1.135,0,0,0,14.155,16L17.5,18.507a1.168,1.168,0,0,0,1.609-.2c1.724-2.159,2.907-3.411,5.531-3.411,1.972,0,4.411,1.253,4.411,3.14,0,1.427-1.193,2.16-3.14,3.237-2.271,1.256-5.275,2.82-5.275,6.733v.381A1.151,1.151,0,0,0,21.8,29.528H27.2a1.151,1.151,0,0,0,1.158-1.143v-.127c0-2.712,8.029-2.825,8.029-10.163C36.39,12.568,30.583,8.376,25.142,8.376ZM24.5,32.005a4.383,4.383,0,1,0,4.44,4.383A4.417,4.417,0,0,0,24.5,32.005Z" transform="matrix(0.985, -0.174, 0.174, 0.985, 987.762, 264.047)" opacity="0.07"/>
    <path id="Icon_awesome-question-circle-2" data-name="Icon awesome-question-circle" d="M48.438,24.192A23.784,23.784,0,0,1,24.5,47.822,23.784,23.784,0,0,1,.563,24.192,23.789,23.789,0,0,1,24.5.563,23.789,23.789,0,0,1,48.438,24.192ZM25.142,8.376c-5.26,0-8.615,2.187-11.25,6.075A1.135,1.135,0,0,0,14.155,16L17.5,18.507a1.168,1.168,0,0,0,1.609-.2c1.724-2.159,2.907-3.411,5.531-3.411,1.972,0,4.411,1.253,4.411,3.14,0,1.427-1.193,2.16-3.14,3.237-2.271,1.256-5.275,2.82-5.275,6.733v.381A1.151,1.151,0,0,0,21.8,29.528H27.2a1.151,1.151,0,0,0,1.158-1.143v-.127c0-2.712,8.029-2.825,8.029-10.163C36.39,12.568,30.583,8.376,25.142,8.376ZM24.5,32.005a4.383,4.383,0,1,0,4.44,4.383A4.417,4.417,0,0,0,24.5,32.005Z" transform="matrix(0.995, 0.105, -0.105, 0.995, 1309.336, 719.632)" opacity="0.07"/>
    <path id="Icon_awesome-question-circle-3" data-name="Icon awesome-question-circle" d="M48.438,24.192A23.784,23.784,0,0,1,24.5,47.822,23.784,23.784,0,0,1,.563,24.192,23.789,23.789,0,0,1,24.5.563,23.789,23.789,0,0,1,48.438,24.192ZM25.142,8.376c-5.26,0-8.615,2.187-11.25,6.075A1.135,1.135,0,0,0,14.155,16L17.5,18.507a1.168,1.168,0,0,0,1.609-.2c1.724-2.159,2.907-3.411,5.531-3.411,1.972,0,4.411,1.253,4.411,3.14,0,1.427-1.193,2.16-3.14,3.237-2.271,1.256-5.275,2.82-5.275,6.733v.381A1.151,1.151,0,0,0,21.8,29.528H27.2a1.151,1.151,0,0,0,1.158-1.143v-.127c0-2.712,8.029-2.825,8.029-10.163C36.39,12.568,30.583,8.376,25.142,8.376ZM24.5,32.005a4.383,4.383,0,1,0,4.44,4.383A4.417,4.417,0,0,0,24.5,32.005Z" transform="matrix(0.995, 0.105, -0.105, 0.995, 1741.903, 358.38)" opacity="0.07"/>
    <path id="Icon_awesome-question-circle-4" data-name="Icon awesome-question-circle" d="M53.582,26.731A26.34,26.34,0,0,1,27.072,52.9,26.34,26.34,0,0,1,.563,26.731,26.345,26.345,0,0,1,27.072.563,26.345,26.345,0,0,1,53.582,26.731ZM27.783,9.215c-5.825,0-9.541,2.422-12.458,6.728a1.257,1.257,0,0,0,.29,1.716l3.709,2.776a1.294,1.294,0,0,0,1.781-.224c1.91-2.391,3.219-3.777,6.125-3.777,2.184,0,4.885,1.387,4.885,3.478,0,1.58-1.322,2.392-3.478,3.585C26.124,24.888,22.8,26.62,22.8,30.952v.422a1.275,1.275,0,0,0,1.283,1.266h5.986a1.275,1.275,0,0,0,1.283-1.266v-.141c0-3,8.892-3.128,8.892-11.255C40.24,13.858,33.809,9.215,27.783,9.215Zm-.711,26.169a4.854,4.854,0,1,0,4.917,4.854A4.891,4.891,0,0,0,27.072,35.384Z" transform="translate(1760.881 660.906) rotate(24)" opacity="0.07"/>
    <path id="Icon_awesome-question-circle-5" data-name="Icon awesome-question-circle" d="M54.488,27.179A26.79,26.79,0,0,1,27.525,53.795,26.79,26.79,0,0,1,.563,27.179,26.8,26.8,0,0,1,27.525.563,26.8,26.8,0,0,1,54.488,27.179ZM28.249,9.363c-5.925,0-9.7,2.464-12.671,6.843a1.279,1.279,0,0,0,.3,1.745l3.772,2.824a1.316,1.316,0,0,0,1.812-.228c1.942-2.432,3.274-3.842,6.23-3.842,2.221,0,4.968,1.411,4.968,3.537,0,1.607-1.344,2.433-3.537,3.646-2.558,1.415-5.942,3.177-5.942,7.583V31.9a1.3,1.3,0,0,0,1.3,1.288h6.088a1.3,1.3,0,0,0,1.3-1.288v-.143c0-3.055,9.044-3.182,9.044-11.448C40.918,14.085,34.377,9.363,28.249,9.363Zm-.724,26.616a4.937,4.937,0,1,0,5,4.937A4.975,4.975,0,0,0,27.525,35.979Z" transform="matrix(0.985, -0.174, 0.174, 0.985, 433.986, 347.12)" opacity="0.07"/>
    <path id="Icon_material-question-answer" data-name="Icon material-question-answer" d="M56.2,14.2H50.6V39.4H14.2V45A2.808,2.808,0,0,0,17,47.8H47.8L59,59V17A2.808,2.808,0,0,0,56.2,14.2ZM45,31V5.8A2.808,2.808,0,0,0,42.2,3H5.8A2.808,2.808,0,0,0,3,5.8V45L14.2,33.8h28A2.808,2.808,0,0,0,45,31Z" transform="matrix(0.996, -0.087, 0.087, 0.996, 898.755, 757.936)" opacity="0.07"/>
    <path id="Icon_material-question-answer-2" data-name="Icon material-question-answer" d="M56.2,14.2H50.6V39.4H14.2V45A2.808,2.808,0,0,0,17,47.8H47.8L59,59V17A2.808,2.808,0,0,0,56.2,14.2ZM45,31V5.8A2.808,2.808,0,0,0,42.2,3H5.8A2.808,2.808,0,0,0,3,5.8V45L14.2,33.8h28A2.808,2.808,0,0,0,45,31Z" transform="matrix(0.978, -0.208, 0.208, 0.978, 331.946, 433.913)" opacity="0.07"/>
    <path id="Icon_material-question-answer-3" data-name="Icon material-question-answer" d="M42.457,11.307H38.3V30h-27V34.15a2.083,2.083,0,0,0,2.077,2.077H36.227l8.307,8.307V13.383A2.083,2.083,0,0,0,42.457,11.307ZM34.15,23.767V5.077A2.083,2.083,0,0,0,32.073,3h-27A2.083,2.083,0,0,0,3,5.077V34.15l8.307-8.307H32.073A2.083,2.083,0,0,0,34.15,23.767Z" transform="translate(1235.253 273.886) rotate(7)" opacity="0.07"/>
    <path id="Icon_material-question-answer-4" data-name="Icon material-question-answer" d="M63.16,15.665H56.827v28.5H15.665v6.333a3.176,3.176,0,0,0,3.166,3.166H53.661L66.326,66.326V18.832A3.176,3.176,0,0,0,63.16,15.665Zm-12.665,19V6.166A3.176,3.176,0,0,0,47.328,3H6.166A3.176,3.176,0,0,0,3,6.166V50.495L15.665,37.829H47.328A3.176,3.176,0,0,0,50.495,34.663Z" transform="matrix(0.951, 0.309, -0.309, 0.951, 1658.382, 252.409)" opacity="0.07"/>
    <path id="Icon_awesome-handshake" data-name="Icon awesome-handshake" d="M46.649,4.5H37.431a3.433,3.433,0,0,0-2.318.9L24.564,15.06c-.011.011-.021.032-.032.043a4.269,4.269,0,0,0-.225,6.01,4.476,4.476,0,0,0,6.02.29c.011-.011.032-.011.043-.021l8.574-7.855a1.717,1.717,0,1,1,2.318,2.533l-2.8,2.565L54.086,31.307a7.732,7.732,0,0,1,.848.826V11.368L49.074,5.509A3.409,3.409,0,0,0,46.649,4.5Zm11.729,6.889V35.417a3.43,3.43,0,0,0,3.434,3.434H68.68V11.389Zm5.151,24.027A1.717,1.717,0,1,1,65.246,33.7,1.722,1.722,0,0,1,63.529,35.417ZM0,38.84H6.868A3.43,3.43,0,0,0,10.3,35.406V11.389H0Zm5.151-6.857A1.717,1.717,0,1,1,3.434,33.7,1.722,1.722,0,0,1,5.151,31.983Zm46.778,2L35.907,20.973l-3.219,2.951A7.724,7.724,0,1,1,22.246,12.538L31.024,4.5H22.031a3.428,3.428,0,0,0-2.425,1.009l-5.87,5.859V35.4H15.7l9.712,8.789a6.867,6.867,0,0,0,9.658-1l.021-.021,1.921,1.663a3.988,3.988,0,0,0,5.612-.579l3.37-4.142.579.472a3.429,3.429,0,0,0,4.829-.5l1.019-1.256a3.44,3.44,0,0,0-.494-4.84Z" transform="matrix(0.999, -0.052, 0.052, 0.999, 541.276, 715.022)" opacity="0.07"/>
    <path id="Icon_awesome-handshake-2" data-name="Icon awesome-handshake" d="M52.107,4.5h-10.3a3.834,3.834,0,0,0-2.589,1.007L27.438,16.3c-.012.012-.024.036-.036.048a4.768,4.768,0,0,0-.252,6.713,5,5,0,0,0,6.725.324c.012-.012.036-.012.048-.024L43.5,14.581A1.917,1.917,0,1,1,46.09,17.41l-3.129,2.865L60.414,34.443a8.636,8.636,0,0,1,.947.923V12.172L54.816,5.627A3.808,3.808,0,0,0,52.107,4.5Zm13.1,7.7V39.034a3.832,3.832,0,0,0,3.836,3.836h7.672V12.2Zm5.754,26.839a1.918,1.918,0,1,1,1.918-1.918A1.924,1.924,0,0,1,70.963,39.034ZM0,42.858H7.672a3.832,3.832,0,0,0,3.836-3.836V12.2H0ZM5.754,35.2a1.918,1.918,0,1,1-1.918,1.918A1.924,1.924,0,0,1,5.754,35.2ZM58,37.428,40.108,22.9l-3.6,3.3A8.628,8.628,0,0,1,24.849,13.478L34.654,4.5H24.609A3.829,3.829,0,0,0,21.9,5.627l-6.557,6.545V39.01h2.194l10.848,9.817a7.67,7.67,0,0,0,10.788-1.115l.024-.024,2.146,1.858a4.455,4.455,0,0,0,6.269-.647l3.764-4.627.647.527a3.83,3.83,0,0,0,5.394-.563l1.139-1.4A3.843,3.843,0,0,0,58,37.428Z" transform="matrix(0.999, -0.052, 0.052, 0.999, 1101.462, 235.815)" opacity="0.07"/>
    <path id="Icon_awesome-handshake-3" data-name="Icon awesome-handshake" d="M51.177,4.5H41.064a3.766,3.766,0,0,0-2.543.989l-11.573,10.6c-.012.012-.024.035-.035.047a4.683,4.683,0,0,0-.247,6.593,4.91,4.91,0,0,0,6.6.318c.012-.012.035-.012.047-.024L42.724,14.4a1.883,1.883,0,1,1,2.543,2.778l-3.073,2.814L59.335,33.909a8.482,8.482,0,0,1,.93.907V12.035L53.837,5.607A3.74,3.74,0,0,0,51.177,4.5Zm12.868,7.558v26.36a3.763,3.763,0,0,0,3.767,3.767h7.535V12.058ZM69.7,38.418a1.884,1.884,0,1,1,1.884-1.884A1.889,1.889,0,0,1,69.7,38.418ZM0,42.173H7.535A3.763,3.763,0,0,0,11.3,38.406V12.058H0ZM5.651,34.65a1.884,1.884,0,1,1-1.884,1.884A1.889,1.889,0,0,1,5.651,34.65Zm51.318,2.19L39.392,22.571,35.86,25.809A8.474,8.474,0,1,1,24.405,13.318L34.035,4.5H24.17a3.761,3.761,0,0,0-2.661,1.107l-6.44,6.428v26.36h2.154l10.654,9.642a7.533,7.533,0,0,0,10.6-1.095l.024-.024L40.6,48.743a4.375,4.375,0,0,0,6.157-.636l3.7-4.544.636.518a3.761,3.761,0,0,0,5.3-.553l1.118-1.377a3.774,3.774,0,0,0-.542-5.31Z" transform="translate(1591.271 691.84) rotate(2)" opacity="0.07"/>
  </g>
</svg>
