<?xml version="1.0" encoding="UTF-8"?>
<svg id="Layer_1" data-name="Layer 1" xmlns="http://www.w3.org/2000/svg" viewBox="0 0 1527.89 586.98">
  <defs>
    <style>
      .cls-1 {
        fill: #03be0f;
        isolation: isolate;
        opacity: .07;
      }
    </style>
  </defs>
  <g id="hero-background-3--dark">
    <path id="Icon_awesome-clipboard-check" data-name="Icon awesome-clipboard-check" class="cls-1" d="M259.73,25.1l-11.54,2.24c-.99-5.1-5.92-8.42-11.02-7.43-5.1.99-8.42,5.92-7.43,11.02h0s-11.54,2.24-11.54,2.24c-3.82.74-6.32,4.45-5.58,8.27l9.87,50.76c.74,3.82,4.44,6.32,8.27,5.58l41.53-8.07c3.82-.74,6.32-4.44,5.58-8.27l-9.87-50.76c-.74-3.82-4.44-6.32-8.27-5.58ZM238.29,25.67c1.91-.37,3.76.87,4.14,2.78.37,1.91-.87,3.76-2.78,4.14-1.91.37-3.76-.87-4.14-2.78,0,0,0,0,0,0-.37-1.91.87-3.75,2.77-4.13,0,0,0,0,.01,0ZM262.26,55.7l-16.64,24.46c-.55.81-1.65,1.01-2.45.47,0,0,0,0,0,0l-14.24-9.7c-.81-.55-1.01-1.65-.47-2.45,0,0,0,0,0,0l3.3-4.86c.55-.81,1.65-1.01,2.45-.47,0,0,0,0,0,0l7.93,5.41,12.34-18.14c.55-.81,1.65-1.01,2.45-.47,0,0,0,0,0,0l4.86,3.3c.8.55,1.01,1.65.46,2.45,0,0,0,0,0,0h0Z"/>
    <path id="Icon_awesome-clipboard-check-2" data-name="Icon awesome-clipboard-check-2" class="cls-1" d="M589.89,7.1l-8.44.59c-.26-3.73-3.49-6.54-7.22-6.28-3.73.26-6.54,3.49-6.28,7.22h0s-8.44.59-8.44.59c-2.8.2-4.9,2.62-4.71,5.42l2.6,37.12c.2,2.8,2.62,4.9,5.42,4.71l30.37-2.12c2.8-.2,4.9-2.62,4.71-5.42l-2.6-37.12c-.2-2.8-2.62-4.9-5.42-4.71ZM574.53,5.63c1.4-.1,2.61.96,2.71,2.35s-.96,2.61-2.35,2.71-2.61-.96-2.71-2.35c-.1-1.39.95-2.61,2.34-2.71,0,0,0,0,.01,0ZM589.02,29.18l-14.04,16.01c-.46.53-1.26.58-1.79.12,0,0,0,0,0,0l-9.32-8.18c-.53-.46-.58-1.26-.12-1.79,0,0,0,0,0,0l2.78-3.18c.46-.53,1.26-.58,1.79-.12,0,0,0,0,0,0l5.19,4.55,10.4-11.87c.46-.53,1.26-.58,1.79-.12,0,0,0,0,0,0l3.18,2.78c.53.46.59,1.26.13,1.79,0,0,0,0-.01.01h0Z"/>
    <path id="Icon_awesome-clipboard-check-3" data-name="Icon awesome-clipboard-check-3" class="cls-1" d="M1226.52,46.11l-8.83-2.53c1.18-3.88-1.01-7.99-4.89-9.17-3.88-1.18-7.99,1.01-9.17,4.89-.02.08-.05.16-.07.23l-8.83-2.53c-2.93-.84-5.98.85-6.82,3.78l-11.14,38.86c-.84,2.93.85,5.98,3.78,6.82l31.8,9.12c2.93.84,5.98-.86,6.82-3.78l11.14-38.86c.84-2.93-.85-5.98-3.78-6.82ZM1211.38,38.9c1.46.42,2.31,1.94,1.9,3.41-.42,1.46-1.94,2.31-3.41,1.9-1.46-.42-2.31-1.94-1.9-3.41,0,0,0,0,0,0,.41-1.46,1.94-2.31,3.4-1.89,0,0,0,0,0,0ZM1217.43,68.33l-20.28,11.13c-.67.37-1.51.12-1.87-.55,0,0,0,0,0,0l-6.48-11.81c-.37-.67-.12-1.51.55-1.87,0,0,0,0,0,0l4.03-2.21c.67-.37,1.51-.12,1.87.55,0,0,0,0,0,0l3.61,6.58,15.03-8.26c.67-.37,1.51-.12,1.87.54h0s2.21,4.03,2.21,4.03c.37.67.12,1.51-.54,1.87,0,0,0,0,0,0Z"/>
    <path id="Icon_awesome-clipboard-check-4" data-name="Icon awesome-clipboard-check-4" class="cls-1" d="M1499.62,333.81l-9.18-3.9c1.72-4.06-.17-8.74-4.23-10.47-4.06-1.72-8.74.17-10.47,4.23h0s-9.18-3.9-9.18-3.9c-3.04-1.29-6.56.13-7.85,3.17l-17.15,40.41c-1.29,3.04.13,6.56,3.17,7.85l33.06,14.04c3.04,1.29,6.56-.13,7.85-3.17l17.15-40.41c1.29-3.04-.13-6.56-3.17-7.85,0,0,0,0,0,0ZM1484.26,324.03c1.52.65,2.23,2.4,1.59,3.92s-2.4,2.23-3.92,1.59-2.23-2.4-1.59-3.92c0,0,0,0,0,0,.64-1.52,2.39-2.23,3.91-1.59,0,0,0,0,.01,0ZM1486.88,356.55l-23.33,9.31c-.77.3-1.64-.07-1.95-.84l-5.42-13.59c-.3-.77.07-1.64.84-1.95l4.63-1.85c.77-.3,1.64.07,1.95.84l3.01,7.57,17.3-6.91c.77-.3,1.64.07,1.95.84l1.85,4.63c.3.77-.07,1.64-.84,1.95Z"/>
    <path id="Icon_awesome-clipboard-check-5" data-name="Icon awesome-clipboard-check-5" class="cls-1" d="M1169.46,511.72l-7.35-1.7c.79-3.24-1.19-6.5-4.43-7.3-3.24-.79-6.5,1.19-7.3,4.43-.01.05-.02.1-.03.15l-7.35-1.7c-2.43-.56-4.86.96-5.43,3.39l-7.47,32.34c-.56,2.43.96,4.86,3.39,5.43l26.46,6.11c2.43.56,4.86-.96,5.43-3.39l7.47-32.34c.56-2.43-.96-4.86-3.39-5.43ZM1156.74,506.46c1.22.28,1.98,1.5,1.7,2.71s-1.5,1.98-2.71,1.7-1.98-1.5-1.7-2.71h0c.28-1.22,1.49-1.98,2.7-1.7,0,0,0,0,.01,0ZM1162.96,530.33l-16.15,9.99c-.53.33-1.23.16-1.56-.37,0,0,0,0,0,0l-5.82-9.4c-.33-.53-.16-1.23.37-1.56l3.21-1.99c.53-.33,1.23-.16,1.56.37l3.24,5.24,11.97-7.42c.53-.33,1.23-.16,1.56.37l1.99,3.21c.33.53.17,1.23-.36,1.56Z"/>
    <path id="Icon_awesome-clipboard-check-6" data-name="Icon awesome-clipboard-check-6" class="cls-1" d="M747.08,506.67l-10.64-.56c.25-4.7-3.36-8.71-8.07-8.96s-8.71,3.36-8.96,8.07h0s-10.64-.55-10.64-.55c-3.52-.18-6.53,2.53-6.72,6.05l-2.45,46.82c-.18,3.53,2.52,6.54,6.05,6.73l38.31,2.01c3.53.18,6.54-2.53,6.72-6.06l2.45-46.82c.18-3.52-2.53-6.53-6.05-6.72ZM728.09,502.48c1.76.09,3.12,1.6,3.03,3.36s-1.6,3.12-3.36,3.03-3.12-1.6-3.03-3.36c.09-1.76,1.58-3.11,3.34-3.03,0,0,.01,0,.02,0h0ZM742.6,534.15l-20.01,17.87c-.66.59-1.67.53-2.26-.13,0,0,0,0,0,0l-10.4-11.66c-.59-.66-.53-1.67.13-2.26,0,0,0,0,0,0l3.97-3.55c.66-.59,1.67-.53,2.26.13,0,0,0,0,0,0l5.8,6.49,14.83-13.25c.66-.59,1.67-.53,2.26.13,0,0,0,0,0,0l3.55,3.97c.59.66.53,1.67-.13,2.26Z"/>
    <path id="Icon_awesome-clipboard-check-7" data-name="Icon awesome-clipboard-check-7" class="cls-1" d="M385.01,531.06l-8.3,1.61c-.71-3.67-4.26-6.07-7.93-5.35-3.67.71-6.07,4.26-5.35,7.93h0s-8.3,1.62-8.3,1.62c-2.75.54-4.55,3.2-4.01,5.95l7.1,36.54c.54,2.75,3.2,4.55,5.95,4.01l29.89-5.81c2.75-.54,4.54-3.2,4.01-5.95l-7.1-36.54c-.54-2.75-3.2-4.55-5.95-4.01ZM369.58,531.47c1.38-.27,2.71.63,2.98,2.01s-.63,2.71-2.01,2.98-2.71-.63-2.98-2.01c-.27-1.37.62-2.7,2-2.97,0,0,0,0,.01,0ZM386.83,553.09l-11.98,17.6c-.39.58-1.18.73-1.76.34,0,0,0,0,0,0l-10.25-6.98c-.58-.39-.73-1.18-.34-1.76,0,0,0,0,0,0l2.38-3.5c.39-.58,1.18-.73,1.76-.34,0,0,0,0,0,0l5.71,3.89,8.88-13.06c.39-.58,1.18-.73,1.76-.34,0,0,0,0,0,0l3.5,2.38c.58.4.73,1.19.33,1.76,0,0,0,0,0,0h0Z"/>
    <path id="Icon_awesome-clipboard-check-8" data-name="Icon awesome-clipboard-check-8" class="cls-1" d="M57.59,330.31l-7.84,3.17c-1.4-3.46-5.34-5.14-8.81-3.74-3.46,1.4-5.14,5.34-3.74,8.81h0s-7.84,3.17-7.84,3.17c-2.6,1.05-3.85,4.01-2.8,6.61l13.94,34.5c1.05,2.6,4.01,3.85,6.61,2.8l28.23-11.4c2.6-1.05,3.85-4.01,2.8-6.61l-13.94-34.5c-1.05-2.6-4.01-3.85-6.61-2.8ZM42.53,333.66c1.3-.52,2.78.1,3.3,1.4s-.1,2.78-1.4,3.3-2.78-.1-3.3-1.4c-.53-1.29.1-2.77,1.39-3.3,0,0,0,0,.01,0ZM63.58,351.58l-8.4,19.56c-.28.64-1.02.94-1.67.67,0,0,0,0,0,0l-11.39-4.9c-.64-.28-.94-1.02-.67-1.67,0,0,0,0,0,0l1.66-3.89c.28-.64,1.02-.94,1.67-.67,0,0,0,0,0,0l6.34,2.72,6.22-14.51c.28-.64,1.02-.94,1.67-.67,0,0,0,0,0,0l3.89,1.66c.65.27.95,1.02.67,1.66,0,0,0,.01,0,.02h0Z"/>
    <path id="Icon_metro-lab" data-name="Icon metro-lab" class="cls-1" d="M455.63,76.96l-19.49-24.1-1.5-10.66,1.6-.22c.88-.12,1.5-.94,1.37-1.82s-.94-1.5-1.82-1.37l-15.98,2.25c-.88.12-1.5.94-1.37,1.82s.94,1.5,1.82,1.37l1.6-.22,1.5,10.66-12.09,28.53c-2.77,6.54.72,11.08,7.75,10.09l31.95-4.49c7.03-.99,9.13-6.31,4.67-11.83ZM418.76,73.77l7.91-18.68-1.62-11.54,6.39-.9,1.62,11.54,12.75,15.77-27.06,3.8Z"/>
    <path id="Icon_metro-lab-2" data-name="Icon metro-lab-2" class="cls-1" d="M1053.1,57.27l-15.87-34.13,1.37-13,1.95.21c1.08.09,2.03-.71,2.11-1.79.09-1.04-.66-1.97-1.7-2.11l-19.49-2.06c-1.08-.09-2.03.71-2.11,1.79-.09,1.04.66,1.97,1.7,2.11l1.95.21-1.37,13-22.65,30.06c-5.19,6.89-2.42,13.26,6.15,14.16l38.98,4.11c8.57.9,12.62-4.75,8.98-12.57ZM1010.59,42.65l14.83-19.68,1.49-14.07,7.79.82-1.49,14.07,10.39,22.34-33.01-3.48Z"/>
    <path id="Icon_metro-lab-3" data-name="Icon metro-lab-3" class="cls-1" d="M1515.07,246.81l-5.6-26.4,3.05-8.86,1.32.46c.73.25,1.53-.14,1.79-.87s-.14-1.53-.87-1.79l-13.28-4.57c-.73-.25-1.53.14-1.79.87s.14,1.53.87,1.79l1.32.46-3.05,8.86-20.66,17.36c-4.73,3.98-3.82,8.88,2.02,10.89l26.57,9.15c5.85,2.01,9.58-1.29,8.3-7.34ZM1487.73,229.76l13.52-11.36,3.3-9.59,5.31,1.83-3.3,9.59,3.66,17.28-22.49-7.75Z"/>
    <path id="Icon_metro-lab-4" data-name="Icon metro-lab-4" class="cls-1" d="M509.91,528.23l-15.47-22.11-.65-9.35,1.4-.1c.77-.05,1.36-.73,1.3-1.5s-.73-1.36-1.5-1.3l-14.01.98c-.77.05-1.36.73-1.3,1.5s.73,1.36,1.5,1.3l1.4-.1.65,9.35-12.23,24.05c-2.8,5.51-.05,9.66,6.11,9.23l28.03-1.96c6.17-.43,8.31-4.93,4.77-9.99ZM478.08,523.21l8.01-15.74-.71-10.12,5.61-.39.71,10.12,10.12,14.47-23.73,1.66Z"/>
    <path id="Icon_metro-lab-5" data-name="Icon metro-lab-5" class="cls-1" d="M893.25,571.19l-15.81-29.78.61-11.69,1.75.09c.97.05,1.79-.69,1.84-1.66s-.69-1.79-1.66-1.84h0l-17.53-.92c-.97-.05-1.79.69-1.84,1.66s.69,1.79,1.66,1.84l1.75.09-.61,11.69-18.84,27.96c-4.31,6.4-1.53,11.98,6.18,12.38l35.05,1.84c7.72.4,11.06-4.85,7.44-11.67ZM854.55,560.13l12.33-18.3.66-12.66,7.01.37-.66,12.66,10.35,19.49-29.68-1.56Z"/>
    <path id="Icon_metro-lab-6" data-name="Icon metro-lab-6" class="cls-1" d="M135.25,468.2l-24.25-23.43-3.03-11.31,1.7-.45c.94-.25,1.49-1.21,1.24-2.15s-1.21-1.49-2.15-1.24h0l-16.96,4.55c-.94.25-1.49,1.21-1.24,2.15s1.21,1.49,2.15,1.24l1.7-.45,3.03,11.31-9.27,32.42c-2.12,7.43,2.24,11.87,9.7,9.87l33.91-9.09c7.46-2,9.02-8.03,3.47-13.4ZM95.01,469.64l6.07-21.22-3.28-12.24,6.78-1.82,3.28,12.24,15.87,15.34-28.71,7.7Z"/>
    <path id="Icon_awesome-question-circle" data-name="Icon awesome-question-circle" class="cls-1" d="M704.18,49.97c2.2,12.95-6.51,25.24-19.47,27.44,0,0,0,0,0,0-12.92,2.37-25.32-6.19-27.69-19.11-2.2-12.95,6.52-25.24,19.47-27.44,12.92-2.37,25.32,6.19,27.69,19.11ZM678.48,38.45c-5.18.92-8.11,3.65-10.02,7.94-.25.56-.02,1.21.53,1.48l3.73,1.89c.56.28,1.25.07,1.55-.48,1.32-2.43,2.27-3.87,4.85-4.32,1.94-.34,4.56.47,4.89,2.33.25,1.41-.8,2.34-2.53,3.73-2.02,1.63-4.71,3.7-4.02,7.55l.07.38c.12.63.72,1.04,1.34.92,0,0,0,0,0,0l5.32-.94c.63-.11,1.05-.7.94-1.33l-.02-.13c-.47-2.67,7.42-4.18,6.14-11.41-.96-5.44-7.41-8.56-12.77-7.62ZM681.96,61.84c-2.38.45-3.94,2.75-3.49,5.13s2.75,3.94,5.13,3.49c2.36-.45,3.92-2.71,3.5-5.07-.44-2.4-2.74-3.98-5.14-3.54Z"/>
    <path id="Icon_awesome-question-circle-2" data-name="Icon awesome-question-circle-2" class="cls-1" d="M1019.49,519.32c-1.46,13.06-13.24,22.46-26.3,21,0,0,0,0,0,0-13.08-1.29-22.63-12.95-21.34-26.03,1.47-13.06,13.24-22.46,26.3-21,13.08,1.3,22.63,12.95,21.34,26.02ZM997.97,501.13c-5.23-.55-8.8,1.27-11.83,4.86-.39.46-.35,1.16.1,1.57l3.07,2.85c.46.43,1.18.41,1.62-.03,1.94-1.97,3.25-3.09,5.86-2.81,1.96.21,4.26,1.71,4.06,3.59-.15,1.42-1.41,2.02-3.46,2.89-2.39,1.01-5.54,2.25-5.96,6.15l-.04.38c-.06.63.4,1.2,1.04,1.26,0,0,0,0,0,0l5.37.57c.63.07,1.2-.38,1.27-1.02v-.13c.3-2.7,8.3-1.97,9.07-9.27.58-5.5-4.75-10.28-10.17-10.85ZM994.85,524.58c-2.41-.22-4.55,1.55-4.77,3.96s1.55,4.55,3.96,4.77c2.39.22,4.51-1.52,4.76-3.91.24-2.42-1.53-4.58-3.96-4.83Z"/>
    <path id="Icon_awesome-question-circle-3" data-name="Icon awesome-question-circle-3" class="cls-1" d="M1452.05,158.06c-1.46,13.06-13.24,22.46-26.3,21,0,0,0,0,0,0-13.08-1.29-22.63-12.95-21.34-26.03,1.47-13.06,13.24-22.46,26.3-21,13.08,1.3,22.63,12.95,21.34,26.02ZM1430.54,139.88c-5.23-.55-8.8,1.27-11.83,4.86-.39.46-.35,1.16.1,1.57l3.07,2.85c.46.43,1.18.41,1.62-.03,1.94-1.97,3.25-3.09,5.86-2.81,1.96.21,4.26,1.71,4.06,3.59-.15,1.42-1.41,2.02-3.46,2.89-2.39,1.01-5.54,2.25-5.96,6.15l-.04.38c-.06.63.4,1.2,1.04,1.26,0,0,0,0,0,0l5.37.57c.63.07,1.2-.38,1.27-1.02v-.13c.3-2.7,8.3-1.97,9.07-9.27.58-5.5-4.75-10.28-10.17-10.85ZM1427.42,163.32c-2.41-.22-4.55,1.55-4.77,3.96s1.55,4.55,3.96,4.77c2.39.22,4.51-1.52,4.76-3.91.24-2.42-1.53-4.58-3.96-4.83Z"/>
    <path id="Icon_awesome-question-circle-4" data-name="Icon awesome-question-circle-4" class="cls-1" d="M1463.45,477.65c-6,13.25-21.61,19.13-34.86,13.12h0c-13.33-5.83-19.4-21.36-13.57-34.69,6-13.25,21.61-19.12,34.86-13.12,13.33,5.83,19.4,21.36,13.57,34.69ZM1447.01,451.15c-5.32-2.37-9.7-1.67-14.12,1.08-.57.35-.76,1.1-.43,1.69l2.26,4.04c.34.61,1.1.84,1.72.52,2.72-1.41,4.48-2.14,7.13-.96,2,.89,3.9,3.25,3.05,5.16-.64,1.44-2.18,1.65-4.64,1.86-2.86.25-6.6.48-8.36,4.44l-.17.39c-.28.64.01,1.4.66,1.68l5.47,2.43c.64.29,1.4,0,1.69-.63l.06-.13c1.22-2.74,9.4.76,12.7-6.67,2.49-5.59-1.5-12.45-7.01-14.9ZM1435.72,474.77c-2.46-1.06-5.32.08-6.38,2.54s.08,5.32,2.54,6.38c2.44,1.05,5.27-.06,6.35-2.48,1.08-2.47-.05-5.35-2.52-6.43Z"/>
    <path id="Icon_awesome-question-circle-5" data-name="Icon awesome-question-circle-5" class="cls-1" d="M156.88,134.94c2.48,14.59-7.34,28.43-21.93,30.91h0c-14.56,2.67-28.52-6.97-31.19-21.53-2.47-14.59,7.34-28.42,21.93-30.91,14.56-2.66,28.52,6.97,31.19,21.53ZM127.94,121.95c-5.84,1.03-9.13,4.11-11.29,8.95-.28.63-.01,1.36.6,1.67l4.21,2.13c.63.32,1.4.08,1.75-.54,1.49-2.73,2.56-4.35,5.47-4.87,2.19-.39,5.14.53,5.51,2.62.28,1.58-.9,2.63-2.85,4.21-2.27,1.84-5.3,4.16-4.53,8.5l.07.42c.13.7.8,1.17,1.5,1.04l6-1.06c.7-.12,1.17-.79,1.06-1.49l-.02-.14c-.53-3.01,8.35-4.71,6.92-12.85-1.08-6.13-8.34-9.64-14.38-8.58ZM131.85,148.3c-2.68.51-4.44,3.09-3.93,5.77.51,2.68,3.09,4.44,5.77,3.93,2.66-.5,4.41-3.05,3.94-5.71-.5-2.7-3.09-4.48-5.78-3.99Z"/>
    <path id="Icon_material-question-answer" data-name="Icon material-question-answer" class="cls-1" d="M620.46,537.72l-5.58.49,2.19,25.1-36.25,3.17.49,5.58c.14,1.54,1.49,2.68,3.03,2.55l30.68-2.68,12.13,10.18-3.65-41.83c-.14-1.54-1.49-2.68-3.03-2.55ZM610.77,555.42l-2.19-25.1c-.14-1.54-1.49-2.68-3.03-2.55l-36.25,3.17c-1.54.14-2.68,1.49-2.55,3.03l3.41,39.04,10.18-12.13,27.89-2.44c1.54-.14,2.68-1.49,2.55-3.03Z"/>
    <path id="Icon_material-question-answer-2" data-name="Icon material-question-answer-2" class="cls-1" d="M54.36,206.64l-5.48,1.16,5.24,24.65-35.6,7.57,1.16,5.48c.33,1.51,1.81,2.47,3.32,2.16l30.12-6.41,13.28,8.62-8.74-41.08c-.33-1.51-1.81-2.47-3.32-2.16ZM46.9,225.4l-5.24-24.65c-.33-1.51-1.81-2.47-3.32-2.16l-35.6,7.57c-1.51.33-2.47,1.81-2.16,3.32l8.15,38.34,8.62-13.28,27.38-5.82c1.51-.33,2.47-1.81,2.16-3.32Z"/>
    <path id="Icon_material-question-answer-3" data-name="Icon material-question-answer-3" class="cls-1" d="M940.51,60.81l-4.13-.51-2.28,18.55-26.8-3.29-.51,4.12c-.14,1.14.67,2.17,1.81,2.31l22.68,2.78,7.23,9.26,3.8-30.92c.14-1.14-.67-2.17-1.81-2.31ZM930.75,72.16l2.28-18.55c.14-1.14-.67-2.17-1.81-2.31l-26.8-3.29c-1.14-.13-2.17.67-2.31,1.81l-3.54,28.86,9.26-7.23,20.61,2.53c1.14.14,2.17-.67,2.31-1.81Z"/>
    <path id="Icon_material-question-answer-4" data-name="Icon material-question-answer-4" class="cls-1" d="M1378.1,57.35l-6.02-1.96-8.81,27.1-39.15-12.72-1.96,6.02c-.53,1.66.37,3.44,2.03,3.99l33.12,10.76,8.13,15.96,14.68-45.17c.54-1.66-.37-3.45-2.03-3.99ZM1360.19,71.51l8.81-27.1c.53-1.66-.37-3.45-2.03-3.99l-39.15-12.72c-1.66-.53-3.44.37-3.99,2.03l-13.7,42.16,15.96-8.13,30.11,9.78c1.66.54,3.45-.37,3.99-2.03h0Z"/>
    <path id="Icon_awesome-handshake" data-name="Icon awesome-handshake" class="cls-1" d="M252.61,487.62l-9.21.48c-.86.04-1.67.41-2.27,1.02l-10.04,10.2s-.02.03-.03.04c-1.63,1.69-1.59,4.37.09,6.02,1.71,1.55,4.33,1.54,6.03-.02.01-.01.03-.01.04-.02l8.16-8.29c.65-.69,1.74-.71,2.43-.06.69.65.71,1.74.06,2.43-.01.01-.03.03-.04.04l-2.66,2.71,16.27,11.86c.32.24.61.5.89.78l-1.08-20.74-6.16-5.55c-.67-.61-1.57-.93-2.48-.88ZM264.68,493.89l1.25,24c.1,1.89,1.71,3.35,3.6,3.25,0,0,0,0,0,0l6.86-.36-1.43-27.43-10.29.54ZM271.08,517.63c-.95.05-1.76-.68-1.8-1.63-.05-.95.68-1.76,1.63-1.8s1.76.68,1.8,1.63h0c.05.95-.68,1.75-1.63,1.81h0ZM207.79,524.35l6.86-.36c1.89-.1,3.35-1.71,3.25-3.6,0,0,0,0,0,0l-1.25-23.99-10.29.54,1.43,27.42ZM212.58,517.23c.95-.05,1.76.68,1.8,1.63s-.68,1.76-1.63,1.8-1.76-.68-1.8-1.63c-.05-.95.68-1.75,1.63-1.8ZM259.42,516.8l-16.68-12.16-3.06,3.12c-2.99,3.04-7.88,3.09-10.93.1s-3.09-7.88-.1-10.93l8.35-8.49-8.98.47c-.91.05-1.76.46-2.37,1.13l-5.56,6.16,1.25,24.01,1.96-.1,10.16,8.28c3.06,2.23,7.36,1.56,9.6-1.5l.02-.02,2.01,1.56c1.78,1.3,4.27.91,5.57-.87,0,0,0,0,0,0l3.15-4.31.6.44c1.53,1.12,3.68.78,4.79-.74,0,0,0,0,0,0l.95-1.31c1.12-1.53.79-3.69-.74-4.81,0,0,0,0,0,0h0Z"/>
    <path id="Icon_awesome-handshake-2" data-name="Icon awesome-handshake-2" class="cls-1" d="M818.25,8.13l-10.29.54c-.96.05-1.86.46-2.53,1.14l-11.21,11.39s-.02.04-.03.05c-1.82,1.89-1.78,4.89.1,6.72,1.92,1.73,4.83,1.72,6.74-.03.01-.01.04-.01.05-.03l9.11-9.27c.74-.76,1.96-.76,2.71-.02.76.74.76,1.96.02,2.71l-2.98,3.02,18.17,13.25c.35.27.69.56.99.87l-1.21-23.17-6.88-6.2c-.75-.68-1.75-1.04-2.76-.99ZM831.73,15.14l1.4,26.81c.11,2.11,1.91,3.74,4.02,3.63,0,0,0,0,0,0l7.66-.4-1.59-30.64-11.5.6ZM838.88,41.65c-1.06.06-1.96-.76-2.02-1.82s.76-1.96,1.82-2.02,1.96.76,2.02,1.82h0c.05,1.05-.76,1.95-1.81,2.01h0ZM768.19,49.16l7.66-.4c2.11-.11,3.74-1.91,3.63-4.02,0,0,0,0,0,0l-1.39-26.8-11.5.6,1.59,30.63ZM773.54,41.21c1.06-.06,1.96.76,2.02,1.82s-.76,1.96-1.82,2.02-1.96-.76-2.02-1.82h0c-.05-1.06.76-1.96,1.82-2.02ZM825.85,40.72l-18.63-13.58-3.42,3.48c-3.34,3.4-8.81,3.45-12.21.1-3.4-3.34-3.45-8.81-.1-12.21l9.33-9.48-10.03.52c-1.02.05-1.97.51-2.65,1.27l-6.21,6.88,1.4,26.81,2.19-.11,11.35,9.24c3.42,2.5,8.22,1.75,10.72-1.67l.02-.03,2.24,1.74c1.99,1.45,4.78,1.02,6.23-.97,0,0,0,0,0,0l3.52-4.82.67.49c1.71,1.25,4.11.87,5.35-.84,0,0,0,0,0,0l1.07-1.46c1.25-1.71.88-4.12-.83-5.37,0,0,0,0,0,0Z"/>
    <path id="Icon_awesome-handshake-3" data-name="Icon awesome-handshake-3" class="cls-1" d="M1306.76,468.65l-10.11-.35c-.94-.03-1.86.29-2.58.9l-11.94,10.19s-.03.03-.04.05c-1.94,1.69-2.15,4.63-.48,6.58,1.73,1.85,4.58,2.09,6.58.55.01-.01.04-.01.05-.02l9.71-8.29c.79-.68,1.98-.58,2.65.21s.58,1.98-.21,2.65l-3.17,2.71,16.64,14.51c.32.29.62.6.9.94l.8-22.77-6.2-6.65c-.68-.73-1.62-1.17-2.62-1.2ZM1319.35,476.65l-.92,26.34c-.07,2.08,1.55,3.82,3.63,3.9,0,0,0,0,0,0l7.53.26,1.05-30.11-11.3-.39ZM1324.08,503.19c-1.04-.04-1.85-.91-1.82-1.95s.91-1.85,1.95-1.82c1.04.04,1.85.91,1.82,1.95-.04,1.04-.91,1.85-1.95,1.82ZM1254.3,504.51l7.53.26c2.08.07,3.82-1.55,3.89-3.63,0,0,0,0,0,0l.92-26.33-11.29-.39-1.05,30.1ZM1260.21,497.19c1.04.04,1.85.91,1.82,1.95s-.91,1.85-1.95,1.82-1.85-.91-1.82-1.95h0c.04-1.04.91-1.85,1.95-1.82ZM1311.42,501.17l-17.07-14.87-3.64,3.11c-3.56,3.04-8.91,2.62-11.95-.94-3.04-3.56-2.62-8.91.94-11.95h0l9.93-8.48-9.86-.34c-1-.03-1.97.33-2.7,1.01l-6.66,6.2-.92,26.34,2.15.08,10.31,10.01c3.13,2.74,7.89,2.41,10.63-.72,0,0,0,0,0,0l.02-.02,2.03,1.9c1.82,1.59,4.58,1.4,6.17-.42,0,0,0,0,0,0l3.86-4.41.62.54c1.56,1.37,3.94,1.21,5.31-.36,0,0,0,0,0-.01l1.17-1.34c1.37-1.57,1.21-3.95-.36-5.33,0,0,0,0,0,0h0Z"/>
  </g>
</svg>