<svg xmlns="http://www.w3.org/2000/svg" width="20.955" height="25.153" viewBox="0 0 20.955 25.153">
  <path id="why-invest-icon-1" d="M741.635,486.553l10.478,2.1a1.048,1.048,0,0,1,.842,1.027v18.853a1.048,1.048,0,0,1-.842,1.027l-10.478,2.1a1.048,1.048,0,0,1-1.253-1.027V487.58a1.2,1.2,0,0,1,.384-.81A.877.877,0,0,1,741.635,486.553Zm-3.349,2.075v20.949h-5.239a1.048,1.048,0,0,1-1.031-.859l-.017-.188V489.676a1.048,1.048,0,0,1,.859-1.031l.188-.017Zm7.334,9.427a1.048,1.048,0,1,0,1.048,1.048A1.048,1.048,0,0,0,745.621,498.054Z" transform="translate(-732 -486.52)" fill="#fff"/>
</svg>
