<svg xmlns="http://www.w3.org/2000/svg" width="14" height="9.821" viewBox="0 0 14 9.821">
  <g id="arrow-down" transform="translate(-1625.61 -44.561)">
    <path id="Icon_awesome-angle-down" data-name="Icon awesome-angle-down" d="M5.7,19.019.277,13.377a1.02,1.02,0,0,1,0-1.406l.9-.938a.926.926,0,0,1,1.351,0l3.842,4,3.842-4a.926.926,0,0,1,1.351,0l.9.938a1.02,1.02,0,0,1,0,1.406l-5.42,5.642A.922.922,0,0,1,5.7,19.019Z" transform="translate(1626.239 34.446)" fill="#1d3036"/>
    <path id="Icon_awesome-angle-down_-_Outline" data-name="Icon awesome-angle-down - Outline" d="M6.374,19.937a1.525,1.525,0,0,1-1.105-.476L-.17,13.819a1.642,1.642,0,0,1-.458-1.151,1.631,1.631,0,0,1,.461-1.142l.9-.935a1.519,1.519,0,0,1,2.21,0l3.427,3.555L9.8,10.591a1.519,1.519,0,0,1,2.21,0l.9.935a1.659,1.659,0,0,1,0,2.293L7.475,19.459A1.5,1.5,0,0,1,6.374,19.937ZM1.839,11.365a.35.35,0,0,0-.253.109l-.9.938a.368.368,0,0,0-.105.259.377.377,0,0,0,.105.264l5.44,5.642a.349.349,0,0,0,.253.109.33.33,0,0,0,.242-.1l0,0,5.44-5.642a.368.368,0,0,0,.105-.259.376.376,0,0,0-.105-.264l-.9-.938a.342.342,0,0,0-.25-.109.35.35,0,0,0-.253.109L6.371,15.916,2.09,11.475A.342.342,0,0,0,1.839,11.365Z" transform="translate(1626.239 34.446)" fill="#f2f0ff"/>
  </g>
</svg>
