<svg xmlns="http://www.w3.org/2000/svg" width="14" height="9.321" viewBox="0 0 14 9.321">
  <g id="arrow-down-bold" transform="translate(-178.86 -44.811)">
    <path id="Icon_awesome-angle-down" data-name="Icon awesome-angle-down" d="M5.922,19.019.288,13.377a.993.993,0,0,1,0-1.406l.936-.938a.989.989,0,0,1,1.4,0l3.993,4,3.993-4a.989.989,0,0,1,1.4,0l.936.938a.993.993,0,0,1,0,1.406L7.321,19.019A.984.984,0,0,1,5.922,19.019Z" transform="translate(179.239 34.446)" fill="#1d3036"/>
    <path id="Icon_awesome-angle-down_-_Outline" data-name="Icon awesome-angle-down - Outline" d="M6.625,19.687a1.359,1.359,0,0,1-.968-.4L.023,13.642a1.364,1.364,0,0,1-.4-.974,1.354,1.354,0,0,1,.4-.965l.935-.936a1.363,1.363,0,0,1,1.935,0L6.621,14.5l3.728-3.734a1.363,1.363,0,0,1,1.935,0l.935.936a1.368,1.368,0,0,1,0,1.938L7.586,19.284A1.335,1.335,0,0,1,6.625,19.687Zm-4.7-8.571a.616.616,0,0,0-.439.183l-.936.938a.609.609,0,0,0-.182.435.618.618,0,0,0,.182.441l5.634,5.642a.616.616,0,0,0,.438.183.6.6,0,0,0,.429-.18l5.636-5.645a.609.609,0,0,0,.182-.435.618.618,0,0,0-.182-.441l-.936-.938a.607.607,0,0,0-.436-.183.616.616,0,0,0-.439.183L6.621,15.562,2.364,11.3A.607.607,0,0,0,1.928,11.115Z" transform="translate(179.239 34.446)" fill="#f2f0ff"/>
  </g>
</svg>
