<svg xmlns="http://www.w3.org/2000/svg" xmlns:xlink="http://www.w3.org/1999/xlink" width="134.802" height="105.096" viewBox="0 0 134.802 105.096">
  <defs>
    <linearGradient id="linear-gradient" x1="-6.609" y1="0.5" x2="-5.385" y2="0.5" gradientUnits="objectBoundingBox">
      <stop offset="0"/>
      <stop offset="1" stop-color="#3a3a3a"/>
    </linearGradient>
    <linearGradient id="linear-gradient-2" x1="-6.907" y1="0.5" x2="-5.541" y2="0.5" xlink:href="#linear-gradient"/>
    <linearGradient id="linear-gradient-3" x1="-7.163" y1="0.5" x2="-5.748" y2="0.5" xlink:href="#linear-gradient"/>
    <linearGradient id="linear-gradient-4" x1="0.076" y1="-0.07" x2="0.957" y2="1.074" xlink:href="#linear-gradient"/>
  </defs>
  <g id="Group_177" data-name="Group 177" transform="translate(-589.5 -121.138)">
    <rect id="Rectangle_124" data-name="Rectangle 124" width="79.556" height="79.556" rx="5" transform="matrix(-0.966, -0.259, 0.259, -0.966, 671.776, 226.218)" opacity="0.5" fill="url(#linear-gradient)"/>
    <rect id="Rectangle_125" data-name="Rectangle 125" width="76.874" height="76.874" rx="5" transform="translate(671.748 226.203) rotate(-150)" opacity="0.3" fill="url(#linear-gradient-2)"/>
    <rect id="Rectangle_126" data-name="Rectangle 126" width="74.314" height="74.314" rx="5" transform="translate(671.754 226.234) rotate(-135)" opacity="0.18" fill="url(#linear-gradient-3)"/>
    <rect id="Rectangle_127" data-name="Rectangle 127" width="82.238" height="82.238" rx="5" transform="translate(671.737 226.224) rotate(180)" fill="url(#linear-gradient-4)"/>
    <path id="Path_39" data-name="Path 39" d="M9.577,35.331l2.2,3.406c.1.169.121.387-.145.387H9.77a.405.405,0,0,1-.435-.217L7.355,35.645H5.446v3.261s-.1.217-.217.217H3.562a.223.223,0,0,1-.242-.217v-9.64s.1-.217.242-.217H7.886a4.166,4.166,0,0,1,2.537.676,3.133,3.133,0,0,1,1.16,2.585,3.1,3.1,0,0,1-1.135,2.464,3.911,3.911,0,0,1-.894.556ZM5.47,30.862v2.972H7.548a2.519,2.519,0,0,0,1.3-.242,1.574,1.574,0,0,0,.048-2.44,2.024,2.024,0,0,0-1.16-.29H5.494Z" transform="translate(594.201 162.216)" fill="#fff"/>
    <path id="Path_40" data-name="Path 40" d="M12.642,39.354a5.187,5.187,0,1,1,0-10.364,5.186,5.186,0,1,1,0,10.364Zm0-8.359a3.189,3.189,0,0,0,0,6.378,3.19,3.19,0,0,0,0-6.378Z" transform="translate(599.737 162.131)" fill="#fff"/>
    <path id="Path_41" data-name="Path 41" d="M14.283,29.064a.2.2,0,0,1,.217.217v7.973h4.3a.223.223,0,0,1,.242.217V38.9s-.1.217-.242.217H12.592a.223.223,0,0,1-.242-.217v-9.64s.1-.217.242-.217h1.667Z" transform="translate(606.987 162.202)" fill="#fff"/>
    <path id="Path_42" data-name="Path 42" d="M17.6,29.064a.2.2,0,0,1,.217.217v7.973h4.3a.223.223,0,0,1,.242.217V38.9s-.1.217-.242.217H15.912a.223.223,0,0,1-.242-.217v-9.64s.1-.217.242-.217h1.667Z" transform="translate(611.687 162.202)" fill="#fff"/>
    <path id="Path_43" data-name="Path 43" d="M20.909,29.05a.2.2,0,0,1,.217.217v9.64s-.1.217-.217.217H19.242A.223.223,0,0,1,19,38.907v-9.64s.1-.217.242-.217Z" transform="translate(616.403 162.216)" fill="#fff"/>
    <path id="Path_44" data-name="Path 44" d="M27.668,29.267s.1-.217.217-.217H29.48s.217.1.217.217v9.64s-.1.217-.217.217H28.006a.407.407,0,0,1-.411-.217L22.764,32.6v6.306s-.1.217-.217.217H20.952a.223.223,0,0,1-.242-.217v-9.64s.1-.217.242-.217h1.474c.169,0,.266.048.411.242L27.668,35.6v-6.33Z" transform="translate(618.824 162.216)" fill="#fff"/>
    <path id="Path_45" data-name="Path 45" d="M33.546,29.662c.145.1.169.193.1.314L32.966,31.4c-.048.121-.169.121-.29.1a5.017,5.017,0,0,0-2.223-.58,3.172,3.172,0,0,0-3.141,3.237,3.091,3.091,0,0,0,3.141,3.31,4.04,4.04,0,0,0,2.15-.58V35.654H30.55s-.217-.1-.217-.217v-1.45s.1-.217.217-.217h3.841a.2.2,0,0,1,.217.217v5s-.1.217-.217.217h-1.57s-.217-.1-.217-.217v-.169a5.034,5.034,0,0,1-2.368.556A4.854,4.854,0,0,1,25.09,34.18,5.247,5.247,0,0,1,30.5,29.01a6.265,6.265,0,0,1,3.044.7Z" transform="translate(625.025 162.159)" fill="#fff"/>
    <path id="Path_46" data-name="Path 46" d="M7.51,46.084H3.572a.223.223,0,0,1-.242-.217v-9.64s.1-.217.242-.217H6.616a4.1,4.1,0,0,1,2.464.628,2.313,2.313,0,0,1,.966,1.933,2.182,2.182,0,0,1-1.256,2.15v.048a2.441,2.441,0,0,1,2.078,2.585c0,1.884-1.691,2.73-3.382,2.73Zm-.072-8.117a1.446,1.446,0,0,0-.846-.242H5.456v2.368H6.471a1.887,1.887,0,0,0,.87-.145A1.067,1.067,0,0,0,7.9,38.933a1.08,1.08,0,0,0-.459-.966ZM7.993,42a2.9,2.9,0,0,0-1.256-.169H5.456v2.537H7.051a2.343,2.343,0,0,0,.942-.145,1.108,1.108,0,0,0,.7-1.135A1.138,1.138,0,0,0,7.993,42Z" transform="translate(594.215 172.071)" fill="#fff"/>
    <path id="Path_47" data-name="Path 47" d="M9.043,36.024a.2.2,0,0,1,.217.217v7.973h4.3a.223.223,0,0,1,.242.217v1.425s-.1.217-.242.217H7.352a.223.223,0,0,1-.242-.217v-9.64s.1-.217.242-.217H9.019Z" transform="translate(599.567 172.057)" fill="#fff"/>
    <path id="Path_48" data-name="Path 48" d="M15.392,46.314a5.187,5.187,0,1,1,0-10.364,5.186,5.186,0,1,1,0,10.364Zm0-8.359a3.189,3.189,0,0,0,0,6.378,3.19,3.19,0,0,0,0-6.378Z" transform="translate(603.631 171.986)" fill="#fff"/>
    <path id="Path_49" data-name="Path 49" d="M14.95,41.12a5.218,5.218,0,0,1,5.412-5.17,6.266,6.266,0,0,1,3.044.7c.145.1.169.193.1.314l-.676,1.425a.2.2,0,0,1-.29.1,4.715,4.715,0,0,0-2.223-.58,3.252,3.252,0,0,0,.024,6.5,4.739,4.739,0,0,0,2.3-.58c.145-.048.217-.048.266.072l.676,1.45c.048.145.024.217-.1.29a6.407,6.407,0,0,1-3.141.725c-3.261,0-5.363-2.005-5.363-5.194Z" transform="translate(610.668 171.986)" fill="#fff"/>
    <path id="Path_50" data-name="Path 50" d="M22.067,41.943l-.821.821v3.092s-.1.217-.217.217H19.362a.223.223,0,0,1-.242-.217v-9.64s.1-.217.242-.217h1.667a.2.2,0,0,1,.217.217v3.841l3.479-3.841A.633.633,0,0,1,25.184,36h2.15c.193,0,.266.169.1.338l-3.865,4.035,3.986,5.315c.145.169.145.387-.121.387H25.45a.463.463,0,0,1-.435-.217Z" transform="translate(616.572 172.057)" fill="#fff"/>
  </g>
</svg>
