<svg xmlns="http://www.w3.org/2000/svg" width="24.774" height="24.774" viewBox="0 0 24.774 24.774">
  <path id="why-icon-2" d="M8.764,6.573l-3.1-3.1H4.119V5.025l3.1,3.1Zm1.548-4.645h1.548v3.1H10.313ZM16.506,9.67h3.1v1.548h-3.1Zm1.548-4.645V3.476H16.506l-3.1,3.1,1.548,1.548ZM2.571,9.67h3.1v1.548h-3.1Zm7.742,6.193h1.548v3.1H10.313Zm-6.193,0v1.548H5.667l3.1-3.1L7.216,12.767Zm22.887,7.4L11.616,7.877a1.165,1.165,0,0,0-1.642,0L8.519,9.331a1.165,1.165,0,0,0,0,1.642l15.39,15.39a1.165,1.165,0,0,0,1.642,0l1.454-1.454A1.165,1.165,0,0,0,27.006,23.266ZM14.183,15.089,9.538,10.444,11.087,8.9l4.645,4.645Z" transform="translate(-2.571 -1.928)" fill="#fff"/>
</svg>
