<svg xmlns="http://www.w3.org/2000/svg" width="27.066" height="17.224" viewBox="0 0 27.066 17.224">
  <path id="why-icon-1" d="M19.954,14.882a3.691,3.691,0,1,0-3.691-3.691A3.675,3.675,0,0,0,19.954,14.882Zm-9.842,0a3.691,3.691,0,1,0-3.691-3.691A3.675,3.675,0,0,0,10.112,14.882Zm0,2.461c-2.867,0-8.612,1.439-8.612,4.306v3.076H18.724V21.648C18.724,18.782,12.978,17.342,10.112,17.342Zm9.842,0c-.357,0-.763.025-1.193.062a5.192,5.192,0,0,1,2.424,4.244v3.076h7.382V21.648C28.566,18.782,22.821,17.342,19.954,17.342Z" transform="translate(-1.5 -7.5)" fill="#fff"/>
</svg>
